<svg xmlns="http://www.w3.org/2000/svg" xmlns:xlink="http://www.w3.org/1999/xlink" contentStyleType="text/css" data-diagram-type="ACTIVITY" height="674px" preserveAspectRatio="none" style="width:1165px;height:674px;background:#FFFFFF;" version="1.1" viewBox="0 0 1165 674" width="1165px" zoomAndPan="magnify"><title>HL7 &#8594; Waveform message decisions</title><defs/><g><g class="title" data-source-line="1"><text fill="#000000" font-family="sans-serif" font-size="14" font-weight="bold" lengthAdjust="spacing" textLength="285.6943" x="438.1707" y="32.9951">HL7 &#8594; Waveform message decisions</text></g><ellipse cx="345.2602" cy="57.2969" fill="#222222" rx="10" ry="10" style="stroke:#222222;stroke-width:1;"/><rect fill="#F1F1F1" height="33.9688" rx="12.5" ry="12.5" style="stroke:#181818;stroke-width:0.5;" width="156.6348" x="266.9428" y="87.2969"/><text fill="#000000" font-family="sans-serif" font-size="12" lengthAdjust="spacing" textLength="136.6348" x="276.9428" y="108.4355">HL7 message received</text><rect fill="#F1F1F1" height="33.9688" rx="12.5" ry="12.5" style="stroke:#181818;stroke-width:0.5;" width="120.4414" x="285.0395" y="141.2656"/><text fill="#000000" font-family="sans-serif" font-size="12" lengthAdjust="spacing" textLength="100.4414" x="295.0395" y="162.4043">Save HL7 to disk</text><polygon fill="#F1F1F1" points="220.6455,256.0391,469.875,256.0391,481.875,268.0391,469.875,280.0391,220.6455,280.0391,208.6455,268.0391,220.6455,256.0391" style="stroke:#181818;stroke-width:0.5;"/><text fill="#000000" font-family="sans-serif" font-size="11" lengthAdjust="spacing" textLength="58.9155" x="220.6455" y="271.8472">Variable in</text><text fill="#000000" font-family="sans-serif" font-size="11" font-weight="bold" lengthAdjust="spacing" textLength="180.979" x="283.0576" y="271.8472">Device_Values_formatted.csv</text><text fill="#000000" font-family="sans-serif" font-size="11" lengthAdjust="spacing" textLength="5.8384" x="464.0366" y="271.8472">?</text><text fill="#000000" font-family="sans-serif" font-size="11" lengthAdjust="spacing" textLength="13.7017" x="194.9438" y="265.4448">no</text><text fill="#000000" font-family="sans-serif" font-size="11" lengthAdjust="spacing" textLength="19.0083" x="481.875" y="265.4448">yes</text><rect fill="#F1F1F1" height="33.9688" rx="12.5" ry="12.5" style="stroke:#181818;stroke-width:0.5;" width="120.5117" x="45" y="290.0391"/><text fill="#000000" font-family="sans-serif" font-size="12" lengthAdjust="spacing" textLength="100.5117" x="55" y="311.1777">Discard OBX line</text><polygon fill="#F1F1F1" points="504.7231,290.0391,705.8061,290.0391,717.8061,302.0391,705.8061,314.0391,504.7231,314.0391,492.7231,302.0391,504.7231,290.0391" style="stroke:#181818;stroke-width:0.5;"/><text fill="#000000" font-family="sans-serif" font-size="11" lengthAdjust="spacing" textLength="201.083" x="504.7231" y="305.8472">Metadata valueType is "Waveform"?</text><text fill="#000000" font-family="sans-serif" font-size="11" lengthAdjust="spacing" textLength="19.0083" x="473.7148" y="299.4448">yes</text><text fill="#000000" font-family="sans-serif" font-size="11" lengthAdjust="spacing" textLength="13.7017" x="717.8061" y="299.4448">no</text><rect fill="#F1F1F1" height="33.9688" rx="12.5" ry="12.5" style="stroke:#181818;stroke-width:0.5;" width="388.1387" x="175.5117" y="324.0391"/><text fill="#000000" font-family="sans-serif" font-size="12" lengthAdjust="spacing" textLength="40.1367" x="185.5117" y="345.1777">Create</text><text fill="#000000" font-family="sans-serif" font-size="12" font-weight="bold" lengthAdjust="spacing" textLength="190.5059" x="229.4629" y="345.1777">WaveformHighFreqMessage</text><text fill="#000000" font-family="sans-serif" font-size="12" lengthAdjust="spacing" textLength="129.8672" x="423.7832" y="345.1777">interchange message</text><rect fill="#F1F1F1" height="33.9688" rx="12.5" ry="12.5" style="stroke:#181818;stroke-width:0.5;" width="289.4316" x="224.8652" y="378.0078"/><text fill="#000000" font-family="sans-serif" font-size="12" lengthAdjust="spacing" textLength="269.4316" x="234.8652" y="399.1465">Interpret OBX-5 as array of numeric samples</text><rect fill="#F1F1F1" height="33.9688" rx="12.5" ry="12.5" style="stroke:#181818;stroke-width:0.5;" width="113.4922" x="312.835" y="446.9766"/><text fill="#000000" font-family="sans-serif" font-size="12" lengthAdjust="spacing" textLength="93.4922" x="322.835" y="468.1152">Pass to Collator</text><rect fill="#F1F1F1" height="33.9688" rx="12.5" ry="12.5" style="stroke:#181818;stroke-width:0.5;" width="383.8262" x="649.035" y="324.0391"/><text fill="#000000" font-family="sans-serif" font-size="12" lengthAdjust="spacing" textLength="40.1367" x="659.035" y="345.1777">Create</text><text fill="#000000" font-family="sans-serif" font-size="12" font-weight="bold" lengthAdjust="spacing" textLength="186.1934" x="702.9862" y="345.1777">WaveformLowFreqMessage</text><text fill="#000000" font-family="sans-serif" font-size="12" lengthAdjust="spacing" textLength="129.8672" x="892.994" y="345.1777">interchange message</text><polygon fill="#F1F1F1" points="736.0184,378.0078,945.8778,378.0078,957.8778,397.2148,945.8778,416.4219,736.0184,416.4219,724.0184,397.2148,736.0184,378.0078" style="stroke:#181818;stroke-width:0.5;"/><text fill="#000000" font-family="sans-serif" font-size="11" lengthAdjust="spacing" textLength="135.2925" x="736.0184" y="388.2183">Known categorical type?</text><text fill="#000000" font-family="sans-serif" font-size="11" lengthAdjust="spacing" textLength="178.0464" x="736.0184" y="401.0229">variable 584 = Ventilation Mode</text><text fill="#000000" font-family="sans-serif" font-size="11" lengthAdjust="spacing" textLength="209.8594" x="736.0184" y="413.8276">variable 2047 = Inspired Trigger Type</text><text fill="#000000" font-family="sans-serif" font-size="11" lengthAdjust="spacing" textLength="19.0083" x="705.0101" y="394.6206">yes</text><text fill="#000000" font-family="sans-serif" font-size="11" lengthAdjust="spacing" textLength="13.7017" x="957.8778" y="394.6206">no</text><rect fill="#F1F1F1" height="47.9375" rx="12.5" ry="12.5" style="stroke:#181818;stroke-width:0.5;" width="209.8965" x="593.6504" y="426.4219"/><text fill="#000000" font-family="sans-serif" font-size="12" lengthAdjust="spacing" textLength="186.082" x="603.6504" y="447.5605">Interpret OBX-5 as categorical,</text><text fill="#000000" font-family="sans-serif" font-size="12" lengthAdjust="spacing" textLength="149.6133" x="603.6504" y="461.5293">look up in mapping table</text><polygon fill="#F1F1F1" points="923.8154,426.4219,1042.7798,426.4219,1054.7798,438.4219,1042.7798,450.4219,923.8154,450.4219,911.8154,438.4219,923.8154,426.4219" style="stroke:#181818;stroke-width:0.5;"/><text fill="#000000" font-family="sans-serif" font-size="11" lengthAdjust="spacing" textLength="118.9644" x="923.8154" y="442.23">OBX-2 in ("ST", "NM")</text><text fill="#000000" font-family="sans-serif" font-size="11" lengthAdjust="spacing" textLength="19.0083" x="892.8071" y="435.8276">yes</text><text fill="#000000" font-family="sans-serif" font-size="11" lengthAdjust="spacing" textLength="13.7017" x="1054.7798" y="435.8276">no</text><rect fill="#F1F1F1" height="61.9063" rx="12.5" ry="12.5" style="stroke:#181818;stroke-width:0.5;" width="136.5371" x="833.5469" y="460.4219"/><text fill="#000000" font-family="sans-serif" font-size="12" lengthAdjust="spacing" textLength="111.9023" x="843.5469" y="481.5605">Interpret OBX-5 as</text><text fill="#000000" font-family="sans-serif" font-size="12" lengthAdjust="spacing" textLength="87.6387" x="843.5469" y="495.5293">string/numeric</text><text fill="#000000" font-family="sans-serif" font-size="12" lengthAdjust="spacing" textLength="116.5371" x="843.5469" y="509.498">according to OBX-2</text><rect fill="#F1F1F1" height="33.9688" rx="12.5" ry="12.5" style="stroke:#181818;stroke-width:0.5;" width="120.5117" x="1004.5239" y="460.4219"/><text fill="#000000" font-family="sans-serif" font-size="12" lengthAdjust="spacing" textLength="100.5117" x="1014.5239" y="481.5605">Discard OBX line</text><polygon fill="#F1F1F1" points="840.9481,532.3281,852.9481,544.3281,840.9481,556.3281,828.9481,544.3281,840.9481,532.3281" style="stroke:#181818;stroke-width:0.5;"/><polygon fill="#F1F1F1" points="605.2646,562.3281,617.2646,574.3281,605.2646,586.3281,593.2646,574.3281,605.2646,562.3281" style="stroke:#181818;stroke-width:0.5;"/><rect fill="#F1F1F1" height="33.9688" rx="12.5" ry="12.5" style="stroke:#181818;stroke-width:0.5;" width="122.0703" x="544.2294" y="606.3281"/><text fill="#000000" font-family="sans-serif" font-size="12" lengthAdjust="spacing" textLength="102.0703" x="554.2294" y="627.4668">Pass to Publisher</text><polygon fill="#F1F1F1" points="248.7712,195.2344,441.7492,195.2344,453.7492,207.2344,441.7492,219.2344,248.7712,219.2344,236.7712,207.2344,248.7712,195.2344" style="stroke:#181818;stroke-width:0.5;"/><text fill="#000000" font-family="sans-serif" font-size="11" lengthAdjust="spacing" textLength="19.0083" x="349.2602" y="229.4448">yes</text><text fill="#000000" font-family="sans-serif" font-size="11" lengthAdjust="spacing" textLength="192.978" x="248.7712" y="211.0425">More OBX (data) lines in message?</text><text fill="#000000" font-family="sans-serif" font-size="11" lengthAdjust="spacing" textLength="13.7017" x="223.0695" y="204.6401">no</text><ellipse cx="24" cy="254.2344" fill="none" rx="11" ry="11" style="stroke:#222222;stroke-width:1;"/><ellipse cx="24" cy="254.2344" fill="#222222" rx="6" ry="6" style="stroke:#222222;stroke-width:1;"/><line style="stroke:#181818;stroke-width:1;" x1="345.2602" x2="345.2602" y1="67.2969" y2="87.2969"/><polygon fill="#181818" points="341.2602,77.2969,345.2602,87.2969,349.2602,77.2969,345.2602,81.2969" style="stroke:#181818;stroke-width:1;"/><line style="stroke:#181818;stroke-width:1;" x1="345.2602" x2="345.2602" y1="121.2656" y2="141.2656"/><polygon fill="#181818" points="341.2602,131.2656,345.2602,141.2656,349.2602,131.2656,345.2602,135.2656" style="stroke:#181818;stroke-width:1;"/><line style="stroke:#181818;stroke-width:1;" x1="369.5811" x2="369.5811" y1="358.0078" y2="378.0078"/><polygon fill="#181818" points="365.5811,368.0078,369.5811,378.0078,373.5811,368.0078,369.5811,372.0078" style="stroke:#181818;stroke-width:1;"/><line style="stroke:#181818;stroke-width:1;" x1="369.5811" x2="369.5811" y1="411.9766" y2="446.9766"/><polygon fill="#181818" points="365.5811,436.9766,369.5811,446.9766,373.5811,436.9766,369.5811,440.9766" style="stroke:#181818;stroke-width:1;"/><line style="stroke:#181818;stroke-width:1;" x1="911.8154" x2="901.8154" y1="438.4219" y2="438.4219"/><line style="stroke:#181818;stroke-width:1;" x1="901.8154" x2="901.8154" y1="438.4219" y2="460.4219"/><polygon fill="#181818" points="897.8154,450.4219,901.8154,460.4219,905.8154,450.4219,901.8154,454.4219" style="stroke:#181818;stroke-width:1;"/><line style="stroke:#181818;stroke-width:1;" x1="1054.7798" x2="1064.7798" y1="438.4219" y2="438.4219"/><line style="stroke:#181818;stroke-width:1;" x1="1064.7798" x2="1064.7798" y1="438.4219" y2="460.4219"/><polygon fill="#181818" points="1060.7798,450.4219,1064.7798,460.4219,1068.7798,450.4219,1064.7798,454.4219" style="stroke:#181818;stroke-width:1;"/><line style="stroke:#181818;stroke-width:1;" x1="901.8154" x2="901.8154" y1="522.3281" y2="544.3281"/><line style="stroke:#181818;stroke-width:1;" x1="901.8154" x2="852.9481" y1="544.3281" y2="544.3281"/><polygon fill="#181818" points="862.9481,540.3281,852.9481,544.3281,862.9481,548.3281,858.9481,544.3281" style="stroke:#181818;stroke-width:1;"/><line style="stroke:#181818;stroke-width:1;" x1="724.0184" x2="698.5986" y1="397.2148" y2="397.2148"/><line style="stroke:#181818;stroke-width:1;" x1="698.5986" x2="698.5986" y1="397.2148" y2="426.4219"/><polygon fill="#181818" points="694.5986,416.4219,698.5986,426.4219,702.5986,416.4219,698.5986,420.4219" style="stroke:#181818;stroke-width:1;"/><line style="stroke:#181818;stroke-width:1;" x1="957.8778" x2="983.2976" y1="397.2148" y2="397.2148"/><line style="stroke:#181818;stroke-width:1;" x1="983.2976" x2="983.2976" y1="397.2148" y2="426.4219"/><polygon fill="#181818" points="979.2976,416.4219,983.2976,426.4219,987.2976,416.4219,983.2976,420.4219" style="stroke:#181818;stroke-width:1;"/><line style="stroke:#181818;stroke-width:1;" x1="698.5986" x2="698.5986" y1="474.3594" y2="544.3281"/><line style="stroke:#181818;stroke-width:1;" x1="698.5986" x2="828.9481" y1="544.3281" y2="544.3281"/><polygon fill="#181818" points="818.9481,540.3281,828.9481,544.3281,818.9481,548.3281,822.9481,544.3281" style="stroke:#181818;stroke-width:1;"/><line style="stroke:#181818;stroke-width:1;" x1="840.9481" x2="840.9481" y1="358.0078" y2="378.0078"/><polygon fill="#181818" points="836.9481,368.0078,840.9481,378.0078,844.9481,368.0078,840.9481,372.0078" style="stroke:#181818;stroke-width:1;"/><line style="stroke:#181818;stroke-width:1;" x1="492.7231" x2="369.5811" y1="302.0391" y2="302.0391"/><line style="stroke:#181818;stroke-width:1;" x1="369.5811" x2="369.5811" y1="302.0391" y2="324.0391"/><polygon fill="#181818" points="365.5811,314.0391,369.5811,324.0391,373.5811,314.0391,369.5811,318.0391" style="stroke:#181818;stroke-width:1;"/><line style="stroke:#181818;stroke-width:1;" x1="717.8061" x2="840.9481" y1="302.0391" y2="302.0391"/><line style="stroke:#181818;stroke-width:1;" x1="840.9481" x2="840.9481" y1="302.0391" y2="324.0391"/><polygon fill="#181818" points="836.9481,314.0391,840.9481,324.0391,844.9481,314.0391,840.9481,318.0391" style="stroke:#181818;stroke-width:1;"/><line style="stroke:#181818;stroke-width:1;" x1="369.5811" x2="369.5811" y1="480.9453" y2="574.3281"/><line style="stroke:#181818;stroke-width:1;" x1="369.5811" x2="593.2646" y1="574.3281" y2="574.3281"/><polygon fill="#181818" points="583.2646,570.3281,593.2646,574.3281,583.2646,578.3281,587.2646,574.3281" style="stroke:#181818;stroke-width:1;"/><line style="stroke:#181818;stroke-width:1;" x1="840.9481" x2="840.9481" y1="556.3281" y2="574.3281"/><line style="stroke:#181818;stroke-width:1;" x1="840.9481" x2="617.2646" y1="574.3281" y2="574.3281"/><polygon fill="#181818" points="627.2646,570.3281,617.2646,574.3281,627.2646,578.3281,623.2646,574.3281" style="stroke:#181818;stroke-width:1;"/><line style="stroke:#181818;stroke-width:1;" x1="605.2646" x2="605.2646" y1="586.3281" y2="606.3281"/><polygon fill="#181818" points="601.2646,596.3281,605.2646,606.3281,609.2646,596.3281,605.2646,600.3281" style="stroke:#181818;stroke-width:1;"/><line style="stroke:#181818;stroke-width:1;" x1="208.6455" x2="105.2559" y1="268.0391" y2="268.0391"/><line style="stroke:#181818;stroke-width:1;" x1="105.2559" x2="105.2559" y1="268.0391" y2="290.0391"/><polygon fill="#181818" points="101.2559,280.0391,105.2559,290.0391,109.2559,280.0391,105.2559,284.0391" style="stroke:#181818;stroke-width:1;"/><line style="stroke:#181818;stroke-width:1;" x1="481.875" x2="605.2646" y1="268.0391" y2="268.0391"/><line style="stroke:#181818;stroke-width:1;" x1="605.2646" x2="605.2646" y1="268.0391" y2="290.0391"/><polygon fill="#181818" points="601.2646,280.0391,605.2646,290.0391,609.2646,280.0391,605.2646,284.0391" style="stroke:#181818;stroke-width:1;"/><line style="stroke:#181818;stroke-width:1;" x1="605.2646" x2="605.2646" y1="640.2969" y2="650.2969"/><line style="stroke:#181818;stroke-width:1;" x1="605.2646" x2="1139.0356" y1="650.2969" y2="650.2969"/><polygon fill="#181818" points="1135.0356,443.7656,1139.0356,433.7656,1143.0356,443.7656,1139.0356,439.7656" style="stroke:#181818;stroke-width:1;"/><line style="stroke:#181818;stroke-width:1;" x1="1139.0356" x2="1139.0356" y1="207.2344" y2="650.2969"/><line style="stroke:#181818;stroke-width:1;" x1="1139.0356" x2="453.7492" y1="207.2344" y2="207.2344"/><polygon fill="#181818" points="463.7492,203.2344,453.7492,207.2344,463.7492,211.2344,459.7492,207.2344" style="stroke:#181818;stroke-width:1;"/><line style="stroke:#181818;stroke-width:1;" x1="345.2602" x2="345.2602" y1="219.2344" y2="256.0391"/><polygon fill="#181818" points="341.2602,246.0391,345.2602,256.0391,349.2602,246.0391,345.2602,250.0391" style="stroke:#181818;stroke-width:1;"/><line style="stroke:#181818;stroke-width:1;" x1="236.7712" x2="24" y1="207.2344" y2="207.2344"/><line style="stroke:#181818;stroke-width:1;" x1="24" x2="24" y1="207.2344" y2="243.2344"/><polygon fill="#181818" points="20,233.2344,24,243.2344,28,233.2344,24,237.2344" style="stroke:#181818;stroke-width:1;"/><line style="stroke:#181818;stroke-width:1;" x1="345.2602" x2="345.2602" y1="175.2344" y2="195.2344"/><polygon fill="#181818" points="341.2602,185.2344,345.2602,195.2344,349.2602,185.2344,345.2602,189.2344" style="stroke:#181818;stroke-width:1;"/><!--SRC=[ZLDHQjj04FtNAGPzoI9fYqb8YIc19fI4HcqWnkc78Knsnz8IULVTMSlu0Zr0ZzYJT5Qor92wK7s8PMRUl3TlPuC9DK5wVNi6ltxyX0TiQUNy6jR4Z2M19cNOECjfad107vBaF1OFUK-AJ4jw9l5x0KDC1WVQyBF4jfMHzbdXFC7NZzyWqnXm0hMnn63iqEPY0eOXsn5F4W2pWco1tk2JOAKepw-eDOeU5rXlY1-ZG0o1z1l5RPuBE5Ha8RCkeW7EhmmhzBfZZ5IpBgmfeAhaI3NJIDRJ5PABqg2D5FDTGr5GEjYHZXmZIcWkFM4WaJUKNPko-kJfUz5FbUUYFf1N5LgnQZ_hR83Vn5pZAKITnwU03EWzxi2jm6xMv8q2ndLJ4u-OEsIEzbwwkiRWV9_e1nh6FwJirct_MrZquxDrMmjAcfHET60DGJovMDfsk9VJzoVm0HPaWn4biY5GE4ql2gRlJiwauiPoOpnfc7jJbkGXcdl0pSE6l51m14jRE_SCcwRR76mQOqi8aMoG_jg8VfZORHenMNe_JuyW_LAaauCI3efOMWvUgDxkBsLfKIddTSVkkhBfR6pnjuH_BcJ_ZMkvnrjjLidhyv_Jk09tcwVQS4NT3lHv-UyVNEINz-gQv3S0]--></g></svg>