<svg xmlns="http://www.w3.org/2000/svg" xmlns:xlink="http://www.w3.org/1999/xlink" contentStyleType="text/css" data-diagram-type="ACTIVITY" height="674px" preserveAspectRatio="none" style="width:1106px;height:674px;background:#FFFFFF;" version="1.1" viewBox="0 0 1106 674" width="1106px" zoomAndPan="magnify"><title>HL7 &#8594; Waveform message decisions</title><defs/><g><g class="title" data-source-line="1"><text fill="#000000" font-family="sans-serif" font-size="14" font-weight="bold" lengthAdjust="spacing" textLength="285.6943" x="409.0381" y="32.9951">HL7 &#8594; Waveform message decisions</text></g><ellipse cx="325.8281" cy="57.2969" fill="#222222" rx="10" ry="10" style="stroke:#222222;stroke-width:1;"/><rect fill="#F1F1F1" height="33.9688" rx="12.5" ry="12.5" style="stroke:#181818;stroke-width:0.5;" width="156.6348" x="247.5107" y="87.2969"/><text fill="#000000" font-family="sans-serif" font-size="12" lengthAdjust="spacing" textLength="136.6348" x="257.5107" y="108.4355">HL7 message received</text><rect fill="#F1F1F1" height="33.9688" rx="12.5" ry="12.5" style="stroke:#181818;stroke-width:0.5;" width="120.4414" x="265.6074" y="141.2656"/><text fill="#000000" font-family="sans-serif" font-size="12" lengthAdjust="spacing" textLength="100.4414" x="275.6074" y="162.4043">Save HL7 to disk</text><polygon fill="#F1F1F1" points="201.2134,256.0391,450.4429,256.0391,462.4429,268.0391,450.4429,280.0391,201.2134,280.0391,189.2134,268.0391,201.2134,256.0391" style="stroke:#181818;stroke-width:0.5;"/><text fill="#000000" font-family="sans-serif" font-size="11" lengthAdjust="spacing" textLength="58.9155" x="201.2134" y="271.8472">Variable in</text><text fill="#000000" font-family="sans-serif" font-size="11" font-weight="bold" lengthAdjust="spacing" textLength="180.979" x="263.6255" y="271.8472">Device_Values_formatted.csv</text><text fill="#000000" font-family="sans-serif" font-size="11" lengthAdjust="spacing" textLength="5.8384" x="444.6045" y="271.8472">?</text><text fill="#000000" font-family="sans-serif" font-size="11" lengthAdjust="spacing" textLength="13.7017" x="175.5117" y="265.4448">no</text><text fill="#000000" font-family="sans-serif" font-size="11" lengthAdjust="spacing" textLength="19.0083" x="462.4429" y="265.4448">yes</text><rect fill="#F1F1F1" height="33.9688" rx="12.5" ry="12.5" style="stroke:#181818;stroke-width:0.5;" width="120.5117" x="45" y="290.0391"/><text fill="#000000" font-family="sans-serif" font-size="12" lengthAdjust="spacing" textLength="100.5117" x="55" y="311.1777">Discard OBX line</text><polygon fill="#F1F1F1" points="461.9912,290.0391,663.0742,290.0391,675.0742,302.0391,663.0742,314.0391,461.9912,314.0391,449.9912,302.0391,461.9912,290.0391" style="stroke:#181818;stroke-width:0.5;"/><text fill="#000000" font-family="sans-serif" font-size="11" lengthAdjust="spacing" textLength="201.083" x="461.9912" y="305.8472">Metadata valueType is "Waveform"?</text><text fill="#000000" font-family="sans-serif" font-size="11" lengthAdjust="spacing" textLength="19.0083" x="430.9829" y="299.4448">yes</text><text fill="#000000" font-family="sans-serif" font-size="11" lengthAdjust="spacing" textLength="13.7017" x="675.0742" y="299.4448">no</text><rect fill="#F1F1F1" height="33.9688" rx="12.5" ry="12.5" style="stroke:#181818;stroke-width:0.5;" width="326.0059" x="179.3794" y="324.0391"/><text fill="#000000" font-family="sans-serif" font-size="12" lengthAdjust="spacing" textLength="40.1367" x="189.3794" y="345.1777">Create</text><text fill="#000000" font-family="sans-serif" font-size="12" font-weight="bold" lengthAdjust="spacing" textLength="128.373" x="233.3306" y="345.1777">WaveformMessage</text><text fill="#000000" font-family="sans-serif" font-size="12" lengthAdjust="spacing" textLength="129.8672" x="365.5181" y="345.1777">interchange message</text><rect fill="#F1F1F1" height="33.9688" rx="12.5" ry="12.5" style="stroke:#181818;stroke-width:0.5;" width="289.4316" x="197.6665" y="378.0078"/><text fill="#000000" font-family="sans-serif" font-size="12" lengthAdjust="spacing" textLength="269.4316" x="207.6665" y="399.1465">Interpret OBX-5 as array of numeric samples</text><rect fill="#F1F1F1" height="33.9688" rx="12.5" ry="12.5" style="stroke:#181818;stroke-width:0.5;" width="113.4922" x="285.6363" y="446.9766"/><text fill="#000000" font-family="sans-serif" font-size="12" lengthAdjust="spacing" textLength="93.4922" x="295.6363" y="468.1152">Pass to Collator</text><rect fill="#F1F1F1" height="33.9688" rx="12.5" ry="12.5" style="stroke:#181818;stroke-width:0.5;" width="383.8262" x="590.7699" y="324.0391"/><text fill="#000000" font-family="sans-serif" font-size="12" lengthAdjust="spacing" textLength="40.1367" x="600.7699" y="345.1777">Create</text><text fill="#000000" font-family="sans-serif" font-size="12" font-weight="bold" lengthAdjust="spacing" textLength="186.1934" x="644.7211" y="345.1777">WaveformLowFreqMessage</text><text fill="#000000" font-family="sans-serif" font-size="12" lengthAdjust="spacing" textLength="129.8672" x="834.7289" y="345.1777">interchange message</text><polygon fill="#F1F1F1" points="677.7533,378.0078,887.6127,378.0078,899.6127,397.2148,887.6127,416.4219,677.7533,416.4219,665.7533,397.2148,677.7533,378.0078" style="stroke:#181818;stroke-width:0.5;"/><text fill="#000000" font-family="sans-serif" font-size="11" lengthAdjust="spacing" textLength="135.2925" x="677.7533" y="388.2183">Known categorical type?</text><text fill="#000000" font-family="sans-serif" font-size="11" lengthAdjust="spacing" textLength="178.0464" x="677.7533" y="401.0229">variable 584 = Ventilation Mode</text><text fill="#000000" font-family="sans-serif" font-size="11" lengthAdjust="spacing" textLength="209.8594" x="677.7533" y="413.8276">variable 2047 = Inspired Trigger Type</text><text fill="#000000" font-family="sans-serif" font-size="11" lengthAdjust="spacing" textLength="19.0083" x="646.745" y="394.6206">yes</text><text fill="#000000" font-family="sans-serif" font-size="11" lengthAdjust="spacing" textLength="13.7017" x="899.6127" y="394.6206">no</text><rect fill="#F1F1F1" height="47.9375" rx="12.5" ry="12.5" style="stroke:#181818;stroke-width:0.5;" width="209.8965" x="535.3853" y="426.4219"/><text fill="#000000" font-family="sans-serif" font-size="12" lengthAdjust="spacing" textLength="186.082" x="545.3853" y="447.5605">Interpret OBX-5 as categorical,</text><text fill="#000000" font-family="sans-serif" font-size="12" lengthAdjust="spacing" textLength="149.6133" x="545.3853" y="461.5293">look up in mapping table</text><polygon fill="#F1F1F1" points="865.5503,426.4219,984.5147,426.4219,996.5147,438.4219,984.5147,450.4219,865.5503,450.4219,853.5503,438.4219,865.5503,426.4219" style="stroke:#181818;stroke-width:0.5;"/><text fill="#000000" font-family="sans-serif" font-size="11" lengthAdjust="spacing" textLength="118.9644" x="865.5503" y="442.23">OBX-2 in ("ST", "NM")</text><text fill="#000000" font-family="sans-serif" font-size="11" lengthAdjust="spacing" textLength="19.0083" x="834.542" y="435.8276">yes</text><text fill="#000000" font-family="sans-serif" font-size="11" lengthAdjust="spacing" textLength="13.7017" x="996.5147" y="435.8276">no</text><rect fill="#F1F1F1" height="61.9063" rx="12.5" ry="12.5" style="stroke:#181818;stroke-width:0.5;" width="136.5371" x="775.2818" y="460.4219"/><text fill="#000000" font-family="sans-serif" font-size="12" lengthAdjust="spacing" textLength="111.9023" x="785.2818" y="481.5605">Interpret OBX-5 as</text><text fill="#000000" font-family="sans-serif" font-size="12" lengthAdjust="spacing" textLength="87.6387" x="785.2818" y="495.5293">string/numeric</text><text fill="#000000" font-family="sans-serif" font-size="12" lengthAdjust="spacing" textLength="116.5371" x="785.2818" y="509.498">according to OBX-2</text><rect fill="#F1F1F1" height="33.9688" rx="12.5" ry="12.5" style="stroke:#181818;stroke-width:0.5;" width="120.5117" x="946.2588" y="460.4219"/><text fill="#000000" font-family="sans-serif" font-size="12" lengthAdjust="spacing" textLength="100.5117" x="956.2588" y="481.5605">Discard OBX line</text><polygon fill="#F1F1F1" points="782.683,532.3281,794.683,544.3281,782.683,556.3281,770.683,544.3281,782.683,532.3281" style="stroke:#181818;stroke-width:0.5;"/><polygon fill="#F1F1F1" points="562.5327,562.3281,574.5327,574.3281,562.5327,586.3281,550.5327,574.3281,562.5327,562.3281" style="stroke:#181818;stroke-width:0.5;"/><rect fill="#F1F1F1" height="33.9688" rx="12.5" ry="12.5" style="stroke:#181818;stroke-width:0.5;" width="122.0703" x="501.4975" y="606.3281"/><text fill="#000000" font-family="sans-serif" font-size="12" lengthAdjust="spacing" textLength="102.0703" x="511.4975" y="627.4668">Pass to Publisher</text><polygon fill="#F1F1F1" points="229.3391,195.2344,422.3171,195.2344,434.3171,207.2344,422.3171,219.2344,229.3391,219.2344,217.3391,207.2344,229.3391,195.2344" style="stroke:#181818;stroke-width:0.5;"/><text fill="#000000" font-family="sans-serif" font-size="11" lengthAdjust="spacing" textLength="19.0083" x="329.8281" y="229.4448">yes</text><text fill="#000000" font-family="sans-serif" font-size="11" lengthAdjust="spacing" textLength="192.978" x="229.3391" y="211.0425">More OBX (data) lines in message?</text><text fill="#000000" font-family="sans-serif" font-size="11" lengthAdjust="spacing" textLength="13.7017" x="203.6375" y="204.6401">no</text><ellipse cx="24" cy="254.2344" fill="none" rx="11" ry="11" style="stroke:#222222;stroke-width:1;"/><ellipse cx="24" cy="254.2344" fill="#222222" rx="6" ry="6" style="stroke:#222222;stroke-width:1;"/><line style="stroke:#181818;stroke-width:1;" x1="325.8281" x2="325.8281" y1="67.2969" y2="87.2969"/><polygon fill="#181818" points="321.8281,77.2969,325.8281,87.2969,329.8281,77.2969,325.8281,81.2969" style="stroke:#181818;stroke-width:1;"/><line style="stroke:#181818;stroke-width:1;" x1="325.8281" x2="325.8281" y1="121.2656" y2="141.2656"/><polygon fill="#181818" points="321.8281,131.2656,325.8281,141.2656,329.8281,131.2656,325.8281,135.2656" style="stroke:#181818;stroke-width:1;"/><line style="stroke:#181818;stroke-width:1;" x1="342.3824" x2="342.3824" y1="358.0078" y2="378.0078"/><polygon fill="#181818" points="338.3824,368.0078,342.3824,378.0078,346.3824,368.0078,342.3824,372.0078" style="stroke:#181818;stroke-width:1;"/><line style="stroke:#181818;stroke-width:1;" x1="342.3824" x2="342.3824" y1="411.9766" y2="446.9766"/><polygon fill="#181818" points="338.3824,436.9766,342.3824,446.9766,346.3824,436.9766,342.3824,440.9766" style="stroke:#181818;stroke-width:1;"/><line style="stroke:#181818;stroke-width:1;" x1="853.5503" x2="843.5503" y1="438.4219" y2="438.4219"/><line style="stroke:#181818;stroke-width:1;" x1="843.5503" x2="843.5503" y1="438.4219" y2="460.4219"/><polygon fill="#181818" points="839.5503,450.4219,843.5503,460.4219,847.5503,450.4219,843.5503,454.4219" style="stroke:#181818;stroke-width:1;"/><line style="stroke:#181818;stroke-width:1;" x1="996.5147" x2="1006.5147" y1="438.4219" y2="438.4219"/><line style="stroke:#181818;stroke-width:1;" x1="1006.5147" x2="1006.5147" y1="438.4219" y2="460.4219"/><polygon fill="#181818" points="1002.5147,450.4219,1006.5147,460.4219,1010.5147,450.4219,1006.5147,454.4219" style="stroke:#181818;stroke-width:1;"/><line style="stroke:#181818;stroke-width:1;" x1="843.5503" x2="843.5503" y1="522.3281" y2="544.3281"/><line style="stroke:#181818;stroke-width:1;" x1="843.5503" x2="794.683" y1="544.3281" y2="544.3281"/><polygon fill="#181818" points="804.683,540.3281,794.683,544.3281,804.683,548.3281,800.683,544.3281" style="stroke:#181818;stroke-width:1;"/><line style="stroke:#181818;stroke-width:1;" x1="665.7533" x2="640.3335" y1="397.2148" y2="397.2148"/><line style="stroke:#181818;stroke-width:1;" x1="640.3335" x2="640.3335" y1="397.2148" y2="426.4219"/><polygon fill="#181818" points="636.3335,416.4219,640.3335,426.4219,644.3335,416.4219,640.3335,420.4219" style="stroke:#181818;stroke-width:1;"/><line style="stroke:#181818;stroke-width:1;" x1="899.6127" x2="925.0325" y1="397.2148" y2="397.2148"/><line style="stroke:#181818;stroke-width:1;" x1="925.0325" x2="925.0325" y1="397.2148" y2="426.4219"/><polygon fill="#181818" points="921.0325,416.4219,925.0325,426.4219,929.0325,416.4219,925.0325,420.4219" style="stroke:#181818;stroke-width:1;"/><line style="stroke:#181818;stroke-width:1;" x1="640.3335" x2="640.3335" y1="474.3594" y2="544.3281"/><line style="stroke:#181818;stroke-width:1;" x1="640.3335" x2="770.683" y1="544.3281" y2="544.3281"/><polygon fill="#181818" points="760.683,540.3281,770.683,544.3281,760.683,548.3281,764.683,544.3281" style="stroke:#181818;stroke-width:1;"/><line style="stroke:#181818;stroke-width:1;" x1="782.683" x2="782.683" y1="358.0078" y2="378.0078"/><polygon fill="#181818" points="778.683,368.0078,782.683,378.0078,786.683,368.0078,782.683,372.0078" style="stroke:#181818;stroke-width:1;"/><line style="stroke:#181818;stroke-width:1;" x1="449.9912" x2="342.3824" y1="302.0391" y2="302.0391"/><line style="stroke:#181818;stroke-width:1;" x1="342.3824" x2="342.3824" y1="302.0391" y2="324.0391"/><polygon fill="#181818" points="338.3824,314.0391,342.3824,324.0391,346.3824,314.0391,342.3824,318.0391" style="stroke:#181818;stroke-width:1;"/><line style="stroke:#181818;stroke-width:1;" x1="675.0742" x2="782.683" y1="302.0391" y2="302.0391"/><line style="stroke:#181818;stroke-width:1;" x1="782.683" x2="782.683" y1="302.0391" y2="324.0391"/><polygon fill="#181818" points="778.683,314.0391,782.683,324.0391,786.683,314.0391,782.683,318.0391" style="stroke:#181818;stroke-width:1;"/><line style="stroke:#181818;stroke-width:1;" x1="342.3824" x2="342.3824" y1="480.9453" y2="574.3281"/><line style="stroke:#181818;stroke-width:1;" x1="342.3824" x2="550.5327" y1="574.3281" y2="574.3281"/><polygon fill="#181818" points="540.5327,570.3281,550.5327,574.3281,540.5327,578.3281,544.5327,574.3281" style="stroke:#181818;stroke-width:1;"/><line style="stroke:#181818;stroke-width:1;" x1="782.683" x2="782.683" y1="556.3281" y2="574.3281"/><line style="stroke:#181818;stroke-width:1;" x1="782.683" x2="574.5327" y1="574.3281" y2="574.3281"/><polygon fill="#181818" points="584.5327,570.3281,574.5327,574.3281,584.5327,578.3281,580.5327,574.3281" style="stroke:#181818;stroke-width:1;"/><line style="stroke:#181818;stroke-width:1;" x1="562.5327" x2="562.5327" y1="586.3281" y2="606.3281"/><polygon fill="#181818" points="558.5327,596.3281,562.5327,606.3281,566.5327,596.3281,562.5327,600.3281" style="stroke:#181818;stroke-width:1;"/><line style="stroke:#181818;stroke-width:1;" x1="189.2134" x2="105.2559" y1="268.0391" y2="268.0391"/><line style="stroke:#181818;stroke-width:1;" x1="105.2559" x2="105.2559" y1="268.0391" y2="290.0391"/><polygon fill="#181818" points="101.2559,280.0391,105.2559,290.0391,109.2559,280.0391,105.2559,284.0391" style="stroke:#181818;stroke-width:1;"/><line style="stroke:#181818;stroke-width:1;" x1="462.4429" x2="562.5327" y1="268.0391" y2="268.0391"/><line style="stroke:#181818;stroke-width:1;" x1="562.5327" x2="562.5327" y1="268.0391" y2="290.0391"/><polygon fill="#181818" points="558.5327,280.0391,562.5327,290.0391,566.5327,280.0391,562.5327,284.0391" style="stroke:#181818;stroke-width:1;"/><line style="stroke:#181818;stroke-width:1;" x1="562.5327" x2="562.5327" y1="640.2969" y2="650.2969"/><line style="stroke:#181818;stroke-width:1;" x1="562.5327" x2="1080.7705" y1="650.2969" y2="650.2969"/><polygon fill="#181818" points="1076.7705,443.7656,1080.7705,433.7656,1084.7705,443.7656,1080.7705,439.7656" style="stroke:#181818;stroke-width:1;"/><line style="stroke:#181818;stroke-width:1;" x1="1080.7705" x2="1080.7705" y1="207.2344" y2="650.2969"/><line style="stroke:#181818;stroke-width:1;" x1="1080.7705" x2="434.3171" y1="207.2344" y2="207.2344"/><polygon fill="#181818" points="444.3171,203.2344,434.3171,207.2344,444.3171,211.2344,440.3171,207.2344" style="stroke:#181818;stroke-width:1;"/><line style="stroke:#181818;stroke-width:1;" x1="325.8281" x2="325.8281" y1="219.2344" y2="256.0391"/><polygon fill="#181818" points="321.8281,246.0391,325.8281,256.0391,329.8281,246.0391,325.8281,250.0391" style="stroke:#181818;stroke-width:1;"/><line style="stroke:#181818;stroke-width:1;" x1="217.3391" x2="24" y1="207.2344" y2="207.2344"/><line style="stroke:#181818;stroke-width:1;" x1="24" x2="24" y1="207.2344" y2="243.2344"/><polygon fill="#181818" points="20,233.2344,24,243.2344,28,233.2344,24,237.2344" style="stroke:#181818;stroke-width:1;"/><line style="stroke:#181818;stroke-width:1;" x1="325.8281" x2="325.8281" y1="175.2344" y2="195.2344"/><polygon fill="#181818" points="321.8281,185.2344,325.8281,195.2344,329.8281,185.2344,325.8281,189.2344" style="stroke:#181818;stroke-width:1;"/><!--SRC=[ZLFRQjj047tNLmnwaaLwmIIan9H04qf3epOGu-R142QxOsc9lAlkh6Ny0_s0V6A_fBEIfOR4XUf1B3DpvfmvEnjCg0dIBzUdyFlN4_p0bbREhs5Dp5WIQ5A6ZRES9Wa7z259pcBnaFUaoBIaPnA_5J34P72W3JzAR5iPQPyLpXDy_tG7cSQ04wYD9GPZXpRd4p0CsOvuaW2O5MGBz0OV12j5UNv9hL5qly1wGtmV1M88fDygRlDSmA4Y2vbr4GrmTcbOeTSTOwIQTM5D0LKbHwgPHhAUhf1Sb0Pjf9Zl6eg2qi6ETEGOKK9puGa3YRoXhEYdoNDH7SYh2grOj9znDi2kOgxn5AA-DoU03EWzxi2jm6xMv8q2ndLJ4u-O6sIEjbwukiRWV9_e1nd6FgJescq_U_hvNyAY3r-jsrfGqgHqeWDh2EB5-TAsmtsSV3Y6Zx0W6umeaSs0mcbwLZ1zVtmg5LUM6-D9mzoRiYGFqTG3BXusv9c28rZQshb7s3JTnc3J65j2Y6I3z9T6zCF4RjE8oTBRUNe4wRSYdHoKS534qdBmGlLkVobBYqevhpjsrvLDPsEBrnB-kOZzDwxZ7c-rMIKlptzFumhSR1vgmnLrEz3dvRz_Q95VtgbhaZy0]--></g></svg>